<?xml version="1.0" standalone="no"?>
<!DOCTYPE svg PUBLIC "-//W3C//DTD SVG 20010904//EN"
 "http://www.w3.org/TR/2001/REC-SVG-20010904/DTD/svg10.dtd">
<svg version="1.0" xmlns="http://www.w3.org/2000/svg"
 width="700.000000pt" height="700.000000pt" viewBox="0 0 700.000000 700.000000"
 preserveAspectRatio="xMidYMid meet">
<metadata>
Created by potrace 1.14, written by Peter Selinger 2001-2017
</metadata>
<g transform="translate(0.000000,700.000000) scale(0.100000,-0.100000)"
fill="#000000" stroke="none">
<path d="M1128 6415 c-2 -2 -28 -5 -58 -8 -164 -18 -339 -147 -421 -312 -68
-138 -66 -90 -64 -1310 l2 -1100 22 -65 c59 -170 173 -296 326 -362 56 -23 75
-29 145 -43 47 -10 1604 -6 1656 4 208 40 377 194 450 411 18 52 19 115 21
1155 3 1159 3 1163 -42 1268 -19 45 -72 133 -100 165 -25 29 -129 111 -170
133 -16 9 -61 27 -100 40 l-70 22 -797 2 c-439 1 -799 1 -800 0z m1482 -584
c13 -1 15 -120 15 -1018 l0 -1018 -729 0 -729 0 -1 1013 c-1 769 2 1015 11
1020 9 5 1347 8 1433 3z"/>
<path d="M4317 6414 c-1 -1 -20 -4 -43 -7 -88 -12 -225 -79 -297 -146 -46 -42
-113 -141 -140 -206 -45 -112 -48 -149 -44 -696 4 -545 2 -526 52 -644 64
-150 213 -274 386 -321 58 -16 134 -17 854 -18 435 0 810 3 835 7 236 33 424
210 487 458 3 13 7 256 8 539 2 547 0 572 -47 683 -65 154 -198 274 -363 328
l-70 23 -808 1 c-444 1 -808 1 -810 -1z m1509 -587 c9 -8 11 -845 3 -858 -6
-10 -1432 -15 -1447 -6 -5 4 -9 844 -3 867 2 8 1440 4 1447 -3z"/>
<path d="M4218 3769 c-207 -58 -367 -229 -413 -440 -21 -98 -21 -2184 0 -2282
45 -207 190 -368 395 -436 70 -24 138 -26 930 -25 l805 0 78 27 c98 34 172 81
243 154 65 68 129 189 147 282 11 51 13 296 12 1155 -1 600 -5 1100 -8 1111
-2 11 -10 40 -17 65 -34 128 -167 287 -290 347 -135 65 -105 63 -1002 62 -766
-1 -817 -2 -880 -20z m1613 -582 c5 -125 2 -2005 -3 -2012 -4 -7 -253 -9 -720
-8 -392 1 -718 2 -723 2 -7 1 -10 344 -9 1019 1 559 2 1018 3 1019 0 1 327 2
726 2 l725 0 1 -22z"/>
<path d="M1095 2619 c-62 -8 -175 -41 -175 -51 0 -4 -9 -8 -20 -8 -11 0 -20
-4 -20 -10 0 -5 -5 -10 -11 -10 -20 0 -111 -79 -158 -138 -25 -31 -58 -85 -73
-118 -53 -117 -55 -148 -53 -705 2 -458 4 -520 19 -569 64 -199 205 -342 399
-402 l72 -23 800 0 c768 1 852 3 921 24 191 57 356 235 400 432 12 51 15 1045
3 1104 -43 225 -207 401 -430 461 -58 16 -137 17 -844 18 -429 1 -802 -2 -830
-5z m1523 -584 c4 -4 7 -200 7 -436 0 -375 -2 -429 -15 -430 -110 -6 -1433 -2
-1437 5 -5 7 -8 799 -4 853 1 6 9 13 18 15 32 6 1425 -1 1431 -7z"/>
</g>
</svg>
